PathFileType	4	(X/Y/Z)	/Users/itak/Documents/Research/Walk-IL/dataset/trc/00546_00009.trc
DataRate	CameraRate	NumFrames	NumMarkers	Units	OrigDataRate	OrigDataStartFrame	OrigNumFrames
100.000000	100.000000	4	53	mm	100.000000	190	508
Frame#	Time	RPSI			LPSI			L3			STRN			T10			C7			CLAV			RBAK			LBAK			LSHO			LUPA			LAEL			LAOL			LWTS			LWPS			LFRA			LIFD			LHPS			LHTS			RSHO			RUPA			RAEL			RAOL			RWTS			RWPS			RFRA			RIFD			RHTS			RHPS			RBHD			LFHD			RFHD			LBHD			LHIP			RHIP			RASI			LASI			LKNE			LTHI			LANK			LTIP			LTOE			LMT1			LMT5			LHEE			RKNE			RTHI			RANK			RTIP			RTOE			RMT1			RMT5			RHEE			
		X1	Y1	Z1	X2	Y2	Z2	X3	Y3	Z3	X4	Y4	Z4	X5	Y5	Z5	X6	Y6	Z6	X7	Y7	Z7	X8	Y8	Z8	X9	Y9	Z9	X10	Y10	Z10	X11	Y11	Z11	X12	Y12	Z12	X13	Y13	Z13	X14	Y14	Z14	X15	Y15	Z15	X16	Y16	Z16	X17	Y17	Z17	X18	Y18	Z18	X19	Y19	Z19	X20	Y20	Z20	X21	Y21	Z21	X22	Y22	Z22	X23	Y23	Z23	X24	Y24	Z24	X25	Y25	Z25	X26	Y26	Z26	X27	Y27	Z27	X28	Y28	Z28	X29	Y29	Z29	X30	Y30	Z30	X31	Y31	Z31	X32	Y32	Z32	X33	Y33	Z33	X34	Y34	Z34	X35	Y35	Z35	X36	Y36	Z36	X37	Y37	Z37	X38	Y38	Z38	X39	Y39	Z39	X40	Y40	Z40	X41	Y41	Z41	X42	Y42	Z42	X43	Y43	Z43	X44	Y44	Z44	X45	Y45	Z45	X46	Y46	Z46	X47	Y47	Z47	X48	Y48	Z48	X49	Y49	Z49	X50	Y50	Z50	X51	Y51	Z51	X52	Y52	Z52	X53	Y53	Z53	

191	1.9	-341.6262512207031	995.4185180664062	380.9066772460938	-342.4425354003906	997.0459594726562	247.008544921875	-335.4804382324219	1094.912719726562	302.084716796875	-88.27902984619141	1264.031616210938	302.6083984375	-335.8372192382812	1219.83837890625	296.3540344238281	-266.0974731445312	1489.70458984375	314.9722595214844	-98.05727386474609	1376.935668945312	308.128662109375	-349.505126953125	1367.410888671875	395.9716796875	-300.5923767089844	1441.680541992188	220.7666931152344	-196.004150390625	1461.286499023438	144.3012084960938	-210.6739044189453	1338.793579101562	57.89436721801758	-206.6011962890625	1114.9912109375	37.00086212158203	-300.3114929199219	1114.708251953125	76.51741027832031	-131.3539276123047	868.93798828125	96.16487121582031	-168.8801727294922	846.64501953125	20.36057090759277	-188.0025787353516	1027.379272460938	33.01934051513672	-139.1793060302734	699.2477416992188	94.18557739257812	-162.5773010253906	786.9510498046875	29.98387718200684	-115.1715927124023	791.2669067382812	79.14283752441406	-214.7754516601562	1443.605590820312	471.2485046386719	-242.396484375	1380.803466796875	536.957275390625	-284.4531555175781	1094.008422851562	579.3603515625	-339.8489074707031	1084.910278320312	548.817138671875	-185.3083648681641	854.9544677734375	549.46923828125	-235.2391510009766	843.3128662109375	614.0103759765625	-282.8036804199219	1038.063598632812	587.3103637695312	-201.3602294921875	682.3297119140625	556.814453125	-172.9094848632812	760.6016845703125	566.418701171875	-230.6521148681641	767.1986083984375	613.0689697265625	-186.2193756103516	1658.89697265625	390.9541320800781	-31.87297058105469	1682.379638671875	253.7619018554688	-46.89131927490234	1675.580078125	397.3046264648438	-161.6651153564453	1664.239013671875	226.9379272460938	-245.0850982666016	919.3636474609375	104.1521987915039	-202.7784423828125	930.8273315429688	492.2650451660156	-124.5102386474609	959.5222778320312	426.7168273925781	-146.5875854492188	931.4754638671875	153.3365173339844	-307.4008483886719	474.9225769042969	174.1928863525391	-262.8492736816406	635.873291015625	138.9884033203125	-600.959228515625	78.97234344482422	198.6548004150391	-482.3696594238281	281.716796875	178.3808898925781	-406.5917053222656	37.28986740112305	262.1644592285156	-469.7127075195312	55.2009162902832	293.4131469726562	-491.4210510253906	34.4959602355957	190.6078643798828	-660.1343994140625	123.8171844482422	248.3613433837891	-55.89148330688477	508.3823852539062	428.7681884765625	-129.3631286621094	786.0886840820312	487.3829650878906	-93.80379486083984	35.05167388916016	404.5094299316406	-34.9897575378418	362.9242553710938	411.0592651367188	123.3006439208984	44.91272354125977	352.3965454101562	57.74694442749023	43.65183639526367	314.9436645507812	39.567138671875	39.11508178710938	418.2942810058594	-150.2658386230469	30.12653350830078	350.6239318847656	
192	1.91	-333.3393249511719	996.7460327148438	382.5239868164062	-334.5376586914062	998.3298950195312	248.6668395996094	-327.3930358886719	1096.217895507812	303.8632507324219	-80.55793762207031	1265.529541015625	303.9621887207031	-327.8981018066406	1221.03955078125	298.1307983398438	-258.6244201660156	1490.976440429688	316.8804626464844	-90.50608062744141	1378.40869140625	309.6252746582031	-341.7411193847656	1368.447387695312	397.7797546386719	-293.1482238769531	1443.089477539062	222.6348266601562	-188.6001281738281	1463.101806640625	146.1061096191406	-203.5203552246094	1340.94873046875	59.33776092529297	-200.1473999023438	1117.2822265625	37.46590423583984	-293.8946228027344	1117.227783203125	76.97830963134766	-125.8136138916016	870.6915283203125	95.57878112792969	-163.5923919677734	848.7977905273438	19.72602081298828	-181.8979949951172	1029.610229492188	33.11147689819336	-134.4358215332031	701.0509033203125	93.04904174804688	-157.5034637451172	789.0567626953125	29.18535995483398	-110.0601196289062	793.0150146484375	78.29341888427734	-207.0594635009766	1444.671875	472.9624633789062	-234.5153198242188	1381.819458007812	538.6526489257812	-275.9991149902344	1094.890258789062	580.7802734375	-331.4656677246094	1085.665283203125	550.361328125	-175.913818359375	856.33984375	550.2640991210938	-225.6396331787109	844.3194580078125	614.8242797851562	-274.1419677734375	1038.922241210938	588.6486206054688	-190.9460754394531	683.634765625	557.28857421875	-162.8770599365234	762.0638427734375	567.045654296875	-220.6651000976562	768.2592163085938	613.7771606445312	-178.6537170410156	1660.171020507812	392.9688110351562	-24.41208267211914	1683.881958007812	255.7234344482422	-39.32691192626953	1676.78076171875	399.2802429199219	-154.1824798583984	1665.830444335938	228.9300842285156	-237.0896759033203	920.8301391601562	105.5405502319336	-194.5435028076172	931.7672119140625	493.7305908203125	-116.1910781860352	960.5218505859375	428.1273193359375	-138.73291015625	933.0250854492188	154.7415466308594	-295.26513671875	474.8530883789062	173.1457672119141	-252.2609100341797	636.6751098632812	139.1019439697266	-597.5121459960938	84.01118469238281	197.2034912109375	-474.1228332519531	284.8510437011719	177.1380462646484	-406.2979125976562	37.05772018432617	262.0184631347656	-468.1549072265625	56.39326477050781	292.85595703125	-490.060546875	35.01523590087891	190.3983612060547	-654.7839965820312	131.3224792480469	246.5979614257812	-51.72610473632812	507.9964599609375	429.3760681152344	-122.5862731933594	786.260009765625	488.5816040039062	-93.71953582763672	35.09020233154297	404.4969482421875	-32.1472053527832	362.4003295898438	411.4750061035156	123.4855880737305	44.33902740478516	352.1022338867188	57.93061828613281	43.27527618408203	314.6918029785156	39.6622428894043	39.10832595825195	418.1670837402344	-150.2272644042969	30.15700721740723	350.6888427734375	
193	1.92	-325.0787048339844	998.1398315429688	384.1538391113281	-326.7184143066406	999.6470336914062	250.3322448730469	-319.3706970214844	1097.564575195312	305.6636962890625	-72.88850402832031	1267.078735351562	305.2538146972656	-320.0205078125	1222.286499023438	299.9677429199219	-251.1972503662109	1492.271484375	318.8021850585938	-83.00161743164062	1379.921875	311.0480651855469	-333.974853515625	1369.517944335938	399.6530151367188	-285.8065795898438	1444.524291992188	224.5459594726562	-181.3481597900391	1464.95263671875	147.9075622558594	-196.5202789306641	1343.15673828125	60.77349853515625	-193.6909637451172	1119.622314453125	37.9355354309082	-287.4950256347656	1119.75439453125	77.38915252685547	-120.2605972290039	872.520263671875	95.04833984375	-158.1699523925781	851.03369140625	19.1004695892334	-175.7673187255859	1031.906372070312	33.2282600402832	-129.6386260986328	702.9197998046875	91.92782592773438	-152.3156127929688	791.23583984375	28.40346145629883	-104.9044342041016	794.8331909179688	77.53022003173828	-199.3181610107422	1445.791748046875	474.6598815917969	-226.5781860351562	1382.9033203125	540.3544311523438	-267.4512329101562	1095.839599609375	582.2327270507812	-323.0167541503906	1086.467041015625	551.9746704101562	-166.3767852783203	857.8370361328125	551.0169677734375	-215.8297119140625	845.4141235351562	615.6152954101562	-265.3650817871094	1039.8486328125	590.0091552734375	-180.2985534667969	685.0619506835938	557.707763671875	-152.6298675537109	763.65478515625	567.6018676757812	-210.4364624023438	769.4166259765625	614.4413452148438	-171.1194763183594	1661.482666015625	394.9277954101562	-16.95857620239258	1685.38037109375	257.6535949707031	-31.79570770263672	1677.989013671875	401.2186279296875	-146.7206726074219	1667.456176757812	230.8807067871094	-229.1812286376953	922.3363037109375	106.9315414428711	-186.3817291259766	932.7445678710938	495.2314758300781	-107.948844909668	961.5074462890625	429.5329895019531	-130.9645233154297	934.6122436523438	156.1495056152344	-282.5209350585938	474.6925964355469	171.8188781738281	-241.4109191894531	637.4595336914062	139.0555725097656	-593.552001953125	89.46910095214844	195.6390533447266	-465.2031860351562	288.0295104980469	175.7152404785156	-405.9666748046875	36.73348236083984	261.9092102050781	-466.4180908203125	57.70311737060547	292.2858581542969	-488.4813537597656	35.75189590454102	190.1408233642578	-648.7803955078125	139.2471466064453	244.6728363037109	-47.88190460205078	507.5944213867188	430.0098571777344	-115.9965515136719	786.44677734375	489.7966613769531	-93.66733551025391	35.0918083190918	404.4831848144531	-29.58677101135254	361.8916931152344	411.9228210449219	123.5989608764648	43.94052124023438	351.8638305664062	58.06796646118164	42.9884033203125	314.4631042480469	39.71049880981445	39.09740447998047	418.0465393066406	-150.2206726074219	30.1663875579834	350.75439453125	
194	1.93	-316.8817138671875	999.5807495117188	385.7721252441406	-318.9997863769531	1000.970581054688	251.9757080078125	-311.4359130859375	1098.93115234375	307.4501037597656	-65.26976013183594	1268.64990234375	306.4689025878906	-312.2162170410156	1223.55908203125	301.84033203125	-243.8168792724609	1493.567626953125	320.7316589355469	-75.54869842529297	1381.445556640625	312.3876342773438	-326.2130126953125	1370.60498046875	401.591796875	-278.572998046875	1445.962768554688	226.4962158203125	-174.2639770507812	1466.809692382812	149.6996765136719	-189.6955871582031	1345.384765625	62.19689559936523	-187.2682647705078	1121.980346679688	38.41328048706055	-281.1343688964844	1122.252807617188	77.78310394287109	-114.6889114379883	874.4053955078125	94.56271362304688	-152.6251525878906	853.3280029296875	18.48406982421875	-169.6392669677734	1034.240234375	33.37028503417969	-124.7449493408203	704.832275390625	90.807861328125	-147.0173034667969	793.4639892578125	27.62941932678223	-99.69178009033203	796.7005615234375	76.83634185791016	-191.5473785400391	1446.941650390625	476.3327026367188	-218.5752563476562	1384.030395507812	542.0562133789062	-258.8044738769531	1096.833862304688	583.7188110351562	-314.4896240234375	1087.29296875	553.65869140625	-156.6969146728516	859.4224243164062	551.7293090820312	-205.8218078613281	846.5711059570312	616.3908081054688	-256.4657287597656	1040.81884765625	591.389892578125	-169.4437255859375	686.584228515625	558.0691528320312	-142.1943969726562	765.3401489257812	568.0867919921875	-199.9797210693359	770.645263671875	615.0571899414062	-163.6277618408203	1662.804931640625	396.8232116699219	-9.529297828674316	1686.856079101562	259.5406799316406	-24.31257629394531	1679.193115234375	403.1062927246094	-139.2985229492188	1669.083984375	232.7831878662109	-221.3810577392578	923.843505859375	108.338249206543	-178.3318023681641	933.7576293945312	496.7543640136719	-99.81786346435547	962.4818115234375	430.932373046875	-123.3036499023438	936.1997680664062	157.5723876953125	-269.2099304199219	474.4403991699219	170.2382354736328	-230.3306732177734	638.216796875	138.8576507568359	-589.0647583007812	95.36479187011719	193.9565124511719	-455.5928955078125	291.2253723144531	174.120849609375	-405.5181884765625	36.30328369140625	261.8226928710938	-464.4488525390625	59.20991897583008	291.6828002929688	-486.6412048339844	36.79127502441406	189.8094329833984	-642.13037109375	147.5937042236328	242.5405120849609	-44.32987976074219	507.1886291503906	430.6769409179688	-109.5778198242188	786.6754760742188	490.9931945800781	-93.64339447021484	35.05461883544922	404.4734497070312	-27.28648948669434	361.4067077636719	412.4085693359375	123.6507873535156	43.67169952392578	351.6848754882812	58.16157913208008	42.78382110595703	314.27490234375	39.72369766235352	39.0754280090332	417.9465026855469	-150.2413482666016	30.15796661376953	350.8262329101562	
